<?xml version="1.0" encoding="utf-8"?>
<!-- Generator: Adobe Illustrator 19.0.0, SVG Export Plug-In . SVG Version: 6.00 Build 0)  -->
<svg version="1.1" xmlns="http://www.w3.org/2000/svg" xmlns:xlink="http://www.w3.org/1999/xlink" x="0px" y="0px"
	 viewBox="0 0 350 200" style="enable-background:new 0 0 350 200;" xml:space="preserve">

   <style>
     #background {
        overflow:hidden;
     }
     #mobile {
      transform:translateY(0px);
     }

     #mobile {
      animation:slide-down 4s 1 ease;
     }

     @keyframes slide-down {
      0% {
        transform:translateY(-300px);
      }
      90% {
        transform:translateY(0px);
      }
      75% {
        transform:translateY(10px);
      }
      90% {
        transform:translateY(5px);
      }
      100% {
        transform:translateY(0px);
      }
     }

   </style>
<g id="Layer_2">
	<rect id="background" style="fill:#EE2A7B;" width="350" height="200"/>
</g>
<g id="mobile">
	<g>
		<g>
			<circle id="XMLID_118_" style="fill-rule:evenodd;clip-rule:evenodd;fill:#5896CC;" cx="104.3" cy="130.8" r="16.2"/>
			<g>
				<polygon id="XMLID_117_" style="fill:#FFFFFF;" points="95.7,139 98.3,136.2 108.8,136.2 108.8,133.3 99.3,133.3 98.7,133.3
					98.7,132.7 98.7,126.4 94.2,126.4 94.2,136.2 95.7,136.2 				"/>
				<polygon id="XMLID_116_" style="fill:#FFFFFF;" points="114.5,122.6 99.3,122.6 99.3,126.4 99.3,132.7 108.8,132.7 110.2,132.7
					112.9,135.6 112.9,132.7 114.5,132.7 				"/>
			</g>
		</g>
		<g>
			<circle id="XMLID_115_" style="fill-rule:evenodd;clip-rule:evenodd;fill:#FA9891;" cx="262.9" cy="99.2" r="16.2"/>
			<g>
				<polygon id="XMLID_114_" style="fill:#FFFFFF;" points="253.6,104.6 259.1,98.1 253.6,93.8 				"/>
				<polygon id="XMLID_113_" style="fill:#FFFFFF;" points="272.1,104.6 272.1,93.8 266.7,98.1 				"/>
				<polygon id="XMLID_112_" style="fill:#FFFFFF;" points="272.1,105.1 272.1,105.1 272.1,105 				"/>
				<polygon id="XMLID_111_" style="fill:#FFFFFF;" points="253.6,105.1 253.7,105.1 253.6,105 				"/>
				<polygon id="XMLID_110_" style="fill:#FFFFFF;" points="271.8,105.1 271.8,105 266.3,98.5 262.9,101.2 259.5,98.5 254,105
					254,105.1 				"/>
				<polygon id="XMLID_109_" style="fill:#FFFFFF;" points="259.4,97.7 259.6,97.9 259.8,98 262.9,100.5 266,98 266.2,97.9
					266.4,97.7 271.7,93.4 254.1,93.4 				"/>
			</g>
		</g>
		<g>
			<circle id="XMLID_108_" style="fill-rule:evenodd;clip-rule:evenodd;fill:#FFD47F;" cx="211.6" cy="53.6" r="16.2"/>
			<g>
				<rect id="XMLID_107_" x="215.2" y="45.8" style="fill:#FFFFFF;" width="3.5" height="1.4"/>
				<path style="fill:#FFFFFF;" d="M211.6,61.3h9.5V47.8h-9.5v1.5h0l0,0c2.9,0,5.3,2.4,5.3,5.3c0,2.9-2.4,5.3-5.3,5.3h0V61.3z
					 M202.1,61.3h9.5v-1.5c-2.9,0-5.3-2.4-5.3-5.3c0-2.9,2.4-5.3,5.3-5.3v-1.5h-9.5V61.3z"/>
				<path id="XMLID_104_" style="fill:#FFFFFF;" d="M211.6,58.1c2,0,3.6-1.6,3.6-3.6c0-2-1.6-3.6-3.6-3.6c-2,0-3.6,1.6-3.6,3.6
					C208,56.5,209.6,58.1,211.6,58.1z"/>
			</g>
		</g>
		<g>
			<circle id="XMLID_103_" style="fill-rule:evenodd;clip-rule:evenodd;fill:#5896CC;" cx="174.6" cy="47.6" r="16.2"/>
			<g>
				<path id="XMLID_102_" style="fill:#FFFFFF;" d="M174.7,47.3c0.3-1.4,1.6-2.4,3.1-2.4c0.2,0,0.5,0,0.7,0.1c0.8,0.2,1.6,0.7,2,1.4
					c0.4-0.3,0.8-0.4,1.3-0.5c0.2-1.7-0.1-2.8-0.1-2.8c-0.6-2.5-3.1-4.1-5.6-3.6c-1.7,0.4-3,1.6-3.5,3.2c-1.1-1.2-2.8-1.8-4.5-1.4
					c-2.5,0.6-4.1,3.1-3.6,5.6c0,0,1,6.3,11,8.9c0.7-0.6,1.3-1.1,1.9-1.7C173.9,50.6,174.6,47.6,174.7,47.3z"/>
				<path id="XMLID_101_" style="fill:#FFFFFF;" d="M182.7,46.5c-0.2,0-0.4-0.1-0.6-0.1c-0.2,0-0.3,0-0.5,0c-0.5,0.1-1,0.4-1.4,0.8
					c-0.3-0.9-1-1.6-1.9-1.8c-0.2,0-0.4-0.1-0.6-0.1c-1.2,0-2.3,0.8-2.6,2c0,0-0.8,2.9,2.5,6.2c0.3,0.3,0.6,0.5,0.9,0.8
					c5.5-1.4,6.1-4.9,6.1-4.9C185,48.2,184.2,46.8,182.7,46.5z"/>
			</g>
		</g>
		<g>
			<circle id="XMLID_100_" style="fill-rule:evenodd;clip-rule:evenodd;fill:#A2C9EB;" cx="104.3" cy="67.8" r="16.2"/>
			<g>
				<polygon id="XMLID_99_" style="fill:#FFFFFF;" points="107.3,71.9 101.3,71.9 101.3,69.2 94.4,69.2 94.4,74.4 114.1,74.4
					114.1,69.2 107.3,69.2 				"/>
				<rect id="XMLID_98_" x="102.4" y="69.2" style="fill:#FFFFFF;" width="3.8" height="1.5"/>
				<path style="fill:#FFFFFF;" d="M109.1,57.8h-4.8v1.7h3.1v2h-3.1v6.6h3h6.9v-6.6h-5V57.8z M104.3,57.8h-4.8v3.7h-5v6.6h6.9h3
					v-6.6h-3.1l0,0v-2h3.1V57.8z"/>
			</g>
		</g>
		<g>
			<circle id="XMLID_95_" style="fill-rule:evenodd;clip-rule:evenodd;fill:#5896CC;" cx="245.4" cy="129.7" r="16.2"/>
			<g>
				<path style="fill:#FFFFFF;" d="M248.7,138.8h2.3V121h-1.2v-0.4h-1.1v1.5h1.1v10.3l0,0h-1.1v1.3h1.1v1.5l0,0h-1.1v1h1.1v1.5l0,0
					h-1.1V138.8z M247.6,120.6v0.4h-2.3v1.1h3.4v-1.5H247.6L247.6,120.6z M245.4,138.8h3.4v-1.2h-1.1v-1.5h1.1v-1h-1.1v-1.5h1.1
					v-1.3h-3.4v1.3h1.1v1.5l0,0h-1.1v1h1.1v1.5l0,0h-1.1V138.8z M245.4,121H242v1.1h3.4V121L245.4,121z M242,138.8h3.4v-1.2h-1.1
					v-1.5h1.1v-1h-1.1v-1.5h1.1v-1.3H242v1.3h1.1v1.5l0,0H242v1h1.1v1.5l0,0H242V138.8z M242,121h-2.3v17.8h2.3v-1.2h-1.1v-1.5h1.1
					v-1h-1.1v-1.5h1.1v-1.3h-1.1v-10.3h1.1V121z"/>
			</g>
		</g>
		<g>
			<circle id="XMLID_88_" style="fill-rule:evenodd;clip-rule:evenodd;fill:#FA9891;" cx="138.2" cy="54.5" r="16.2"/>
			<g>
				<path id="XMLID_87_" style="fill:#FFFFFF;" d="M138.2,45.3c-5.6,0-10.2,4.6-10.2,10.3c0,1.7,0.4,3.4,1.2,4.9v-2.7
					c0-0.5,0.2-1,0.5-1.4c0-0.3,0-0.5,0-0.8c0-4.7,3.8-8.6,8.5-8.6c4.7,0,8.6,3.9,8.6,8.6c0,0.3,0,0.6,0,0.9
					c0.3,0.4,0.4,0.8,0.4,1.3v2.9c0.9-1.5,1.3-3.3,1.3-5C148.4,49.9,143.8,45.3,138.2,45.3z"/>
				<path id="XMLID_86_" style="fill:#FFFFFF;" d="M129.8,57.3c0,0.1-0.1,0.3-0.1,0.4v2.6v1.2c0,1.2,1.4,2.1,3.2,2.1h1.3v-8.1h-1.3
					C131.4,55.6,130.1,56.3,129.8,57.3z"/>
				<path id="XMLID_85_" style="fill:#FFFFFF;" d="M146.5,61.6v-1.3v-2.6c0-0.1,0-0.2,0-0.3c-0.2-1.1-1.5-1.9-3.1-1.9H142v8.1h1.3
					C145.1,63.7,146.5,62.8,146.5,61.6z"/>
			</g>
		</g>
		<g>
			<circle id="XMLID_84_" style="fill-rule:evenodd;clip-rule:evenodd;fill:#FFD47F;" cx="87.1" cy="99.2" r="16.2"/>
			<g>
				<path id="XMLID_83_" style="fill:#FFFFFF;" d="M81.6,107.1c1.6,0,2.8-1.3,2.8-2.8c0,0,0,0,0,0V95h9.2v6.6
					c-0.3-0.1-0.7-0.2-1.1-0.2c-1.6,0-2.8,1.3-2.8,2.8c0,1.6,1.3,2.8,2.8,2.8c1.6,0,2.8-1.3,2.8-2.8c0,0,0,0,0,0l0,0V95v-3.6h-1.8
					h-9.2h-1.8V95v6.6c-0.3-0.1-0.7-0.2-1.1-0.2c-1.6,0-2.8,1.3-2.8,2.8C78.8,105.8,80.1,107.1,81.6,107.1z"/>
			</g>
		</g>
		<g>
			<circle id="XMLID_82_" style="fill-rule:evenodd;clip-rule:evenodd;fill:#A2C9EB;" cx="243.9" cy="68.6" r="16.2"/>
			<path id="XMLID_81_" style="fill-rule:evenodd;clip-rule:evenodd;fill:#FFFFFF;" d="M241.8,73.9c4.1,0,7.5-3.4,7.5-7.5
				c0-4.1-3.4-7.5-7.5-7.5s-7.5,3.4-7.5,7.5C234.3,70.6,237.6,73.9,241.8,73.9z"/>
			<path id="XMLID_80_" style="fill-rule:evenodd;clip-rule:evenodd;fill:#A2C9EB;" d="M241.8,71.5c2.8,0,5.1-2.3,5.1-5.1
				c0-2.8-2.3-5.1-5.1-5.1c-2.8,0-5.1,2.3-5.1,5.1C236.7,69.2,238.9,71.5,241.8,71.5z"/>
			<path id="XMLID_79_" style="fill:#FFFFFF;" d="M246.4,73.5l4.7,4.7l2.4-2.4l-4.7-4.7C248.2,72.1,247.3,72.9,246.4,73.5z"/>
		</g>
		<g>
			<g>
				<path id="XMLID_78_" style="fill-rule:evenodd;clip-rule:evenodd;fill:#4D4D4D;" d="M193.3,53.7h-37.5
					c-7.3,0-13.2,5.9-13.2,13.2v64.7c0,7.3,5.9,13.2,13.2,13.2h37.5c7.3,0,13.2-5.9,13.2-13.2V66.9
					C206.5,59.7,200.6,53.7,193.3,53.7z"/>
				<path id="XMLID_77_" style="fill-rule:evenodd;clip-rule:evenodd;fill:#FFFFFF;" d="M201.8,61.4h-54.4c-0.1,0-0.2,0.1-0.2,0.2
					v74.6c0,0.1,0.1,0.2,0.2,0.2h54.4c0.1,0,0.2-0.1,0.2-0.2V61.5C202,61.4,201.9,61.4,201.8,61.4z"/>
				<path id="XMLID_76_" style="fill-rule:evenodd;clip-rule:evenodd;fill:#CCCCCC;" d="M181.6,56h-14c-0.4,0-0.7,0.3-0.7,0.7l0,0
					c0,0.4,0.3,0.7,0.7,0.7h14c0.4,0,0.7-0.3,0.7-0.7l0,0C182.3,56.3,182,56,181.6,56z"/>
				<path id="XMLID_75_" style="fill-rule:evenodd;clip-rule:evenodd;fill:#CCCCCC;" d="M174.6,142.8c1.3,0,2.3-1,2.3-2.3
					c0-1.3-1-2.3-2.3-2.3c-1.3,0-2.3,1-2.3,2.3C172.3,141.7,173.3,142.8,174.6,142.8z"/>
			</g>
			<g>
				<rect id="XMLID_74_" x="147.2" y="61.4" style="fill-rule:evenodd;clip-rule:evenodd;fill:#FFFFFF;" width="54.8" height="75"/>

					<rect id="XMLID_73_" x="147.2" y="61.4" style="fill-rule:evenodd;clip-rule:evenodd;fill:#91BDE3;" width="54.8" height="3.6"/>

					<rect id="XMLID_72_" x="161.8" y="67.2" style="fill-rule:evenodd;clip-rule:evenodd;fill:#ED7B5C;" width="25.5" height="5.5"/>

					<rect id="XMLID_71_" x="147.2" y="79.3" style="fill-rule:evenodd;clip-rule:evenodd;fill:#5896CC;" width="54.8" height="15.3"/>

					<rect id="XMLID_70_" x="157.7" y="74.9" style="fill-rule:evenodd;clip-rule:evenodd;fill:#91BDE3;" width="33.7" height="2.3"/>

					<rect id="XMLID_69_" x="150.5" y="97.6" style="fill-rule:evenodd;clip-rule:evenodd;fill:#FFD47F;" width="13.8" height="12.4"/>

					<rect id="XMLID_68_" x="167.7" y="97.6" style="fill-rule:evenodd;clip-rule:evenodd;fill:#FA9891;" width="13.8" height="12.4"/>

					<rect id="XMLID_67_" x="184.9" y="97.6" style="fill-rule:evenodd;clip-rule:evenodd;fill:#A2C9EB;" width="13.8" height="12.4"/>

					<rect id="XMLID_66_" x="147.2" y="129.7" style="fill-rule:evenodd;clip-rule:evenodd;fill:#91BDE3;" width="54.8" height="6.7"/>
				<g>

						<rect id="XMLID_65_" x="150.5" y="111.7" style="fill-rule:evenodd;clip-rule:evenodd;fill:#CCCCCC;" width="13.8" height="2.3"/>

						<rect id="XMLID_64_" x="150.5" y="115.7" style="fill-rule:evenodd;clip-rule:evenodd;fill:#CCCCCC;" width="13.8" height="2.3"/>

						<rect id="XMLID_63_" x="150.5" y="119.7" style="fill-rule:evenodd;clip-rule:evenodd;fill:#CCCCCC;" width="13.8" height="2.3"/>

						<rect id="XMLID_62_" x="150.5" y="123.7" style="fill-rule:evenodd;clip-rule:evenodd;fill:#CCCCCC;" width="8.7" height="2.3"/>

						<rect id="XMLID_61_" x="167.7" y="111.7" style="fill-rule:evenodd;clip-rule:evenodd;fill:#CCCCCC;" width="13.8" height="2.3"/>

						<rect id="XMLID_60_" x="167.7" y="115.7" style="fill-rule:evenodd;clip-rule:evenodd;fill:#CCCCCC;" width="13.8" height="2.3"/>

						<rect id="XMLID_59_" x="167.7" y="119.7" style="fill-rule:evenodd;clip-rule:evenodd;fill:#CCCCCC;" width="13.8" height="2.3"/>

						<rect id="XMLID_58_" x="167.7" y="123.7" style="fill-rule:evenodd;clip-rule:evenodd;fill:#CCCCCC;" width="8.7" height="2.3"/>

						<rect id="XMLID_57_" x="184.9" y="111.7" style="fill-rule:evenodd;clip-rule:evenodd;fill:#CCCCCC;" width="13.8" height="2.3"/>

						<rect id="XMLID_56_" x="184.9" y="115.7" style="fill-rule:evenodd;clip-rule:evenodd;fill:#CCCCCC;" width="13.8" height="2.3"/>

						<rect id="XMLID_54_" x="184.9" y="119.7" style="fill-rule:evenodd;clip-rule:evenodd;fill:#CCCCCC;" width="13.8" height="2.3"/>

						<rect id="XMLID_53_" x="184.9" y="123.7" style="fill-rule:evenodd;clip-rule:evenodd;fill:#CCCCCC;" width="8.7" height="2.3"/>
				</g>
				<path id="XMLID_52_" style="fill:#FFFFFF;" d="M198.4,84.6c-0.2-0.2-0.1-0.5,0.1-0.6c0.2-0.2,0.5-0.1,0.6,0.1l1.2,1.5
					c0,0,0,0,0,0l0,0l0,0l0,0l0,0l0,0l0,0c0,0,0,0,0,0l0,0c0,0,0,0,0,0.1v0c0,0,0,0,0,0v0v0v0c0,0,0,0,0,0v0c0,0,0,0,0,0.1l0,0
					c0,0,0,0,0,0l0,0l0,0l0,0l0,0l0,0l0,0c0,0,0,0,0,0l-1.2,1.5c-0.2,0.2-0.5,0.2-0.6,0.1c-0.2-0.2-0.2-0.5-0.1-0.6l1-1.2
					L198.4,84.6z"/>
				<path id="XMLID_51_" style="fill:#FFFFFF;" d="M150.1,84c0.2-0.2,0.4-0.2,0.6-0.1c0.2,0.2,0.2,0.4,0.1,0.6l-1,1.2l1,1.2
					c0.2,0.2,0.1,0.5-0.1,0.6c-0.2,0.2-0.5,0.1-0.6-0.1l-1.2-1.5c0,0,0,0,0,0l0,0l0,0l0,0l0,0l0,0l0,0c0,0,0,0,0,0l0,0
					c0,0,0,0,0-0.1v0c0,0,0,0,0,0v0v0v0c0,0,0,0,0,0v0c0,0,0,0,0-0.1l0,0c0,0,0,0,0,0l0,0l0,0l0,0l0,0l0,0l0,0c0,0,0,0,0,0L150.1,84
					z"/>
			</g>
		</g>
		<g>
			<circle id="XMLID_50_" style="fill-rule:evenodd;clip-rule:evenodd;fill:#FA9891;" cx="174.6" cy="152.4" r="16.2"/>
			<g>
				<path style="fill:#FFFFFF;" d="M177.5,158.8h5.9V146h-5.9v5.3l4.2,5.9h-4.2V158.8z M173.8,158.8h3.7v-1.5h-2.6l-0.2-0.3
					l-0.9-1.3v0.9l0.5,0.7h-0.5V158.8L173.8,158.8z M177.5,146h-3.7v8.2l2.9-4l0,0l0.8,1.1V146z M170.8,158.8h3v-1.5h-2.2h-0.8
					V158.8L170.8,158.8z M173.8,146h-3v2.2c0.2,0.2,0.3,0.5,0.3,0.9c0,0.3-0.1,0.6-0.3,0.9v2.5l0,0l2.2,3l0.8,1.1v-0.9l-0.5-0.7
					l0.5-0.7V146z M165.8,158.8h5v-1.5h-3.5l0,0l3.5-4.9V150c-0.3,0.3-0.6,0.5-1.1,0.5c-0.8,0-1.4-0.6-1.4-1.4
					c0-0.8,0.6-1.4,1.4-1.4l0,0c0.4,0,0.8,0.2,1.1,0.5V146h-5V158.8z"/>
			</g>
		</g>
		<g>
			<circle id="XMLID_43_" style="fill-rule:evenodd;clip-rule:evenodd;fill:#FFD47F;" cx="138.4" cy="145.3" r="16.2"/>
			<g>
				<polygon id="XMLID_42_" style="fill:#FFFFFF;" points="135,151.4 134.9,153.8 141.9,153.8 141.8,151.4 				"/>
				<path style="fill:#FFFFFF;" d="M141.7,150.8h6.5v-12.3h-9.9v1.5h8.1v9.3h-4.8h-3.3v1.5H141.7z M138.4,138.5h-9.9v12.3h6.5h3.4
					v-1.5h-3.3h-4.8l0,0V140h8.1V138.5z"/>
				<polygon id="XMLID_39_" style="fill:#FFFFFF;" points="133.5,154.4 133.5,155.3 143.2,155.3 143.2,154.4 141.9,154.4
					134.8,154.4 				"/>
			</g>
		</g>
		<g>
			<circle id="XMLID_38_" style="fill-rule:evenodd;clip-rule:evenodd;fill:#FFD47F;" cx="211.9" cy="145.4" r="16.2"/>
			<g>
				<path style="fill-rule:evenodd;clip-rule:evenodd;fill:#FFFFFF;" d="M221.3,146.8h0.8c2.3,0,2.4-2.6,0-2.6l-0.8,0v0.2
					c0.6,0,1.1,0.5,1.1,1.1c0,0.6-0.5,1.1-1.1,1.1V146.8z M202.4,146.8h18.9v-0.2c-0.6,0-1.1-0.5-1.1-1.1c0-0.6,0.5-1.1,1.1-1.1
					v-0.2c-6.3,0-12.6,0-18.9,0v0.2l0,0c0.6,0,1.1,0.5,1.1,1.1c0,0.6-0.5,1.1-1.1,1.1l0,0V146.8z M201.6,146.8h0.8v-0.2
					c-0.6,0-1.1-0.5-1.1-1.1c0-0.6,0.5-1.1,1.1-1.1v-0.2l-0.8,0C199.2,144.2,199.3,146.8,201.6,146.8z"/>
				<circle id="XMLID_34_" style="fill-rule:evenodd;clip-rule:evenodd;fill:#FFFFFF;" cx="213.3" cy="136.4" r="1.1"/>
				<path id="XMLID_33_" style="fill-rule:evenodd;clip-rule:evenodd;fill:#FFFFFF;" d="M221.8,145.2l-7.4-8.3
					c-0.2-0.2-0.5-0.2-0.7,0l0,0c-0.2,0.2-0.2,0.5,0,0.7l7.4,8.3c0.2,0.2,0.5,0.2,0.7,0l0,0C221.9,145.7,221.9,145.4,221.8,145.2z"
					/>
				<circle id="XMLID_32_" style="fill-rule:evenodd;clip-rule:evenodd;fill:#FFFFFF;" cx="210.4" cy="136.4" r="1.1"/>
				<path id="XMLID_31_" style="fill-rule:evenodd;clip-rule:evenodd;fill:#FFFFFF;" d="M202,145.2l8.1-9.1c0.2-0.2,0.5-0.2,0.7,0
					l0,0c0.2,0.2,0.2,0.5,0,0.7l-8.1,9.1c-0.2,0.2-0.5,0.2-0.7,0l0,0C201.9,145.7,201.8,145.4,202,145.2z"/>
				<path style="fill-rule:evenodd;clip-rule:evenodd;fill:#FFFFFF;" d="M218.2,147.6h3.8l-1,5.7c-0.2,1.2-0.8,2.2-2.7,2.2h-0.1
					v-1.7c0.3-0.1,0.5-0.4,0.5-0.7c0.1-0.7,0.2-1.3,0.3-2c0.1-0.7,0.2-1.3,0.3-2c0.1-0.4-0.3-0.8-0.8-0.8l0,0c-0.1,0-0.2,0-0.3,0
					V147.6z M215,147.6h3.1v0.8c-0.3,0.1-0.6,0.4-0.7,0.8c-0.1,0.7-0.1,1.3-0.2,2c-0.1,0.7-0.1,1.3-0.2,2c0,0.4,0.3,0.8,0.7,0.8l0,0
					c0.1,0,0.3,0,0.4-0.1v1.7H215v-1.7c0.3-0.1,0.6-0.4,0.6-0.8c0-0.7,0.1-1.3,0.2-2c0-0.7,0.1-1.3,0.2-2c0-0.4-0.3-0.8-0.8-0.8l0,0
					c0,0-0.1,0-0.1,0V147.6z M211.9,147.6h3.2v0.7c-0.4,0.1-0.8,0.4-0.8,0.8c0,0.7-0.1,1.3-0.1,2c0,0.7-0.1,1.3-0.1,2
					c0,0.4,0.3,0.8,0.7,0.8l0,0c0.1,0,0.1,0,0.2,0v1.7h-3.2v-1.6c0.4,0,0.8-0.4,0.8-0.8c0-0.7,0-1.3,0-2c0-0.7,0-1.3,0-2
					c0-0.4-0.4-0.8-0.9-0.8l0,0h0V147.6z M208.7,147.6h3.2v0.7c-0.5,0-0.9,0.4-0.9,0.8c0,0.7,0,1.3,0,2c0,0.7,0,1.3,0,2
					c0,0.4,0.4,0.8,0.8,0.8l0,0l0,0v1.6h-3.2v-1.7c0.1,0,0.1,0,0.2,0l0,0c0.4,0,0.8-0.4,0.7-0.8c0-0.7-0.1-1.3-0.1-2
					c0-0.7-0.1-1.3-0.1-2c0-0.4-0.4-0.7-0.8-0.8V147.6z M205.6,147.6h3.1v0.7c0,0-0.1,0-0.1,0l0,0c-0.5,0-0.8,0.4-0.8,0.8
					c0,0.7,0.1,1.3,0.2,2c0.1,0.7,0.1,1.3,0.1,2c0,0.4,0.3,0.7,0.6,0.8v1.7h-3.1v-1.7c0.1,0.1,0.2,0.1,0.4,0.1l0,0
					c0.4,0,0.7-0.4,0.7-0.8c-0.1-0.7-0.1-1.3-0.2-2c-0.1-0.7-0.1-1.3-0.2-2c0-0.3-0.3-0.6-0.7-0.8V147.6z M205.5,155.5
					c-1.9,0-2.5-0.9-2.7-2.2l-1-5.7h3.8v0.8c-0.1,0-0.2,0-0.3,0l0,0c-0.5,0-0.8,0.4-0.8,0.8c0.1,0.7,0.2,1.3,0.3,2
					c0.1,0.7,0.2,1.3,0.3,2c0,0.3,0.3,0.6,0.5,0.7L205.5,155.5L205.5,155.5z"/>
			</g>
		</g>
	</g>
</g>
</svg>
