<?xml version="1.0" encoding="utf-8"?>
<!-- Generator: Adobe Illustrator 19.0.0, SVG Export Plug-In . SVG Version: 6.00 Build 0)  -->
<svg version="1.1" id="Layer_1" xmlns="http://www.w3.org/2000/svg" xmlns:xlink="http://www.w3.org/1999/xlink" x="0px" y="0px"
	 viewBox="0 0 350 200" style="enable-background:new 0 0 350 200;" xml:space="preserve">

   <style>
     #background {
        overflow:hidden;
     }
     #monitor, #screen, #elements, #pencil {
      transform:translateY(0px);
     }

     #monitor, #screen, #elements, #pencil {
      animation:slide-down 4s 1 ease;
     }

     @keyframes slide-down {
      0% {
        transform:translateY(-300px);
      }
      90% {
        transform:translateY(0px);
      }
      75% {
        transform:translateY(10px);
      }
      90% {
        transform:translateY(5px);
      }
      100% {
        transform:translateY(0px);
      }
     }

   </style>

   <rect id="background" style="fill:#EE2A7B;" width="350" height="200"/>
   <g id="monitor">
   	<polygon id="XMLID_27_" style="fill-rule:evenodd;clip-rule:evenodd;fill:#4D4D4D;" points="154.2,148.2 185.5,148.2 200.2,174.8
   		139.5,174.8 	"/>
   	<path id="XMLID_26_" style="fill-rule:evenodd;clip-rule:evenodd;fill:#46749C;" d="M96,44.4h147.6c4.2,0,7.6,3.4,7.6,7.6v95.5
   		c0,4.2-3.4,7.6-7.6,7.6H96c-4.2,0-7.6-3.4-7.6-7.6V52C88.5,47.8,91.9,44.4,96,44.4z"/>
   	<g id="XMLID_55_">
   		<circle id="XMLID_25_" style="fill-rule:evenodd;clip-rule:evenodd;fill:#F5F5F5;" cx="242" cy="148.3" r="1"/>
   		<circle id="XMLID_24_" style="fill-rule:evenodd;clip-rule:evenodd;fill:#F5F5F5;" cx="238.2" cy="148.3" r="1"/>
   		<circle id="XMLID_23_" style="fill-rule:evenodd;clip-rule:evenodd;fill:#F5F5F5;" cx="234.4" cy="148.3" r="1"/>
   	</g>
   	<path id="XMLID_22_" style="fill-rule:evenodd;clip-rule:evenodd;fill:#46749C;" d="M79.8,166.8h180.2c2.2,0,4,1.8,4,4l0,0
   		c0,2.2-1.8,4-4,4H79.8c-2.2,0-4-1.8-4-4l0,0C75.7,168.6,77.5,166.8,79.8,166.8z"/>
   	<path id="XMLID_21_" style="fill-rule:evenodd;clip-rule:evenodd;fill:#4D4D4D;" d="M264,170.8c0,2.2-1.8,4-4,4H79.8
   		c-2.2,0-4-1.8-4-4H264z"/>
   </g>
   <rect id="screen" x="93.5" y="48.8" style="fill-rule:evenodd;clip-rule:evenodd;fill:#FFFFFF;" width="152.7" height="92.7"/>
   <g id="elements">
   	<rect id="XMLID_19_" x="103.6" y="48.8" style="fill-rule:evenodd;clip-rule:evenodd;fill:#91BDE3;" width="132.4" height="8"/>
   	<rect id="XMLID_18_" x="139" y="61.7" style="fill-rule:evenodd;clip-rule:evenodd;fill:#ED7B5C;" width="61.6" height="12.2"/>
   	<rect id="XMLID_17_" x="103.6" y="88.3" style="fill-rule:evenodd;clip-rule:evenodd;fill:#5896CC;" width="132.4" height="33.7"/>
   	<rect id="XMLID_16_" x="129.1" y="78.7" style="fill-rule:evenodd;clip-rule:evenodd;fill:#91BDE3;" width="81.6" height="5.1"/>
   	<rect id="XMLID_15_" x="111.7" y="128.7" style="fill-rule:evenodd;clip-rule:evenodd;fill:#FFD47F;" width="33.3" height="12.8"/>
   	<rect id="XMLID_14_" x="153.2" y="128.7" style="fill-rule:evenodd;clip-rule:evenodd;fill:#ED7B5C;" width="33.3" height="12.8"/>
   	<rect id="XMLID_13_" x="194.8" y="128.7" style="fill-rule:evenodd;clip-rule:evenodd;fill:#91BDE3;" width="33.3" height="12.8"/>
   </g>
   <g id="pencil">
   	<path id="XMLID_10_" style="fill-rule:evenodd;clip-rule:evenodd;fill:#ED7B5C;" d="M213.7,61.9l-5.8,15.9l15.7-6.4l49.7-51.6
   		c1.4-1.5,1.4-3.9-0.1-5.3l-4.5-4.3c-1.5-1.4-3.9-1.4-5.3,0.1L213.7,61.9z"/>
   	<path id="XMLID_9_" style="fill-rule:evenodd;clip-rule:evenodd;fill:#FA9891;" d="M213.7,61.9l-5.8,15.9L219,66.2l51.8-53.9
   		l-2.2-2.2c-1.5-1.4-3.9-1.4-5.3,0.1L213.7,61.9z"/>
   	<path id="XMLID_8_" style="fill-rule:evenodd;clip-rule:evenodd;fill:#CCCCCC;" d="M213.7,61.9l-5.8,15.9l15.7-6.4l45.9-47.7
   		c-2.9-3.9-6.2-7-9.9-9.5L213.7,61.9z"/>
   	<path id="XMLID_7_" style="fill-rule:evenodd;clip-rule:evenodd;fill:#FFFFFF;" d="M213.7,61.9l-5.8,15.9L219,66.2l45.9-47.7
   		c-1.7-1.6-3.5-3.1-5.3-4.3L213.7,61.9z"/>
   	<path id="XMLID_6_" style="fill-rule:evenodd;clip-rule:evenodd;fill:#ED7B5C;" d="M213.7,61.9l-5.8,15.9l15.7-6.4l42.9-44.5
   		c-2.9-4-6.2-7.1-9.9-9.5L213.7,61.9z"/>
   	<path id="XMLID_5_" style="fill-rule:evenodd;clip-rule:evenodd;fill:#FA9891;" d="M214,61.6l-5.8,15.8l11.1-11.5l42.5-44.2
   		c-1.7-1.6-3.4-3-5.3-4.2L214,61.6z"/>
   	<path id="XMLID_4_" style="fill-rule:evenodd;clip-rule:evenodd;fill:#CCCCCC;" d="M213.7,61.9l-5.8,15.9l15.7-6.4
   		c-1.3-1.8-2.8-3.5-4.5-5.2C217.3,64.6,215.5,63.2,213.7,61.9z"/>
   	<path id="XMLID_3_" style="fill-rule:evenodd;clip-rule:evenodd;fill:#FFFFFF;" d="M213.7,61.9l-5.8,15.9L219,66.2
   		C217.3,64.6,215.5,63.2,213.7,61.9z"/>
   	<path id="XMLID_2_" style="fill-rule:evenodd;clip-rule:evenodd;fill:#91BDE3;" d="M209.8,72.6l-1.9,5.3l5.2-2.1
   		c-0.4-0.6-0.9-1.2-1.5-1.7C211,73.5,210.4,73,209.8,72.6z"/>
   </g>
   </svg>
